<svg width="3475" height="222" viewBox="0 0 3475 222" fill="none" xmlns="http://www.w3.org/2000/svg">
<path d="M3383.83 8.28094L3358.7 25.397C3351.21 30.5009 3341.38 30.5009 3333.89 25.397L3308.77 8.28094C3292.58 -2.72594 3271.31 -2.72594 3255.15 8.28094L3230.03 25.397C3222.53 30.5009 3212.7 30.5009 3205.21 25.397L3180.09 8.28094C3163.9 -2.72594 3142.64 -2.72594 3126.47 8.28094L3101.35 25.397C3093.86 30.5009 3084.02 30.5009 3076.53 25.397L3051.41 8.28094C3035.22 -2.72594 3013.96 -2.72594 2997.79 8.28094L2972.67 25.397C2965.18 30.5009 2955.35 30.5009 2947.86 25.397L2922.73 8.28094C2906.54 -2.72594 2885.28 -2.72594 2869.11 8.28094L2843.99 25.397C2836.5 30.5009 2826.67 30.5009 2819.18 25.397L2794.05 8.28094C2777.86 -2.72594 2756.6 -2.72594 2740.44 8.28094L2715.31 25.397C2707.82 30.5009 2697.99 30.5009 2690.5 25.397L2665.38 8.28094C2649.19 -2.72594 2627.92 -2.72594 2611.76 8.28094L2586.64 25.397C2579.14 30.5009 2569.31 30.5009 2561.82 25.397L2536.7 8.28094C2520.51 -2.72594 2499.25 -2.72594 2483.08 8.28094L2457.96 25.397C2450.47 30.5009 2440.63 30.5009 2433.14 25.397L2408.02 8.28094C2391.83 -2.72594 2370.57 -2.72594 2354.4 8.28094L2329.28 25.397C2321.79 30.5009 2311.96 30.5009 2304.47 25.397L2279.34 8.28094C2263.15 -2.72594 2241.89 -2.72594 2225.72 8.28094L2200.6 25.397C2193.11 30.5009 2183.28 30.5009 2175.79 25.397L2150.66 8.28094C2134.47 -2.72594 2113.21 -2.72594 2097.05 8.28094L2071.92 25.397C2064.43 30.5009 2054.6 30.5009 2047.11 25.397L2021.99 8.28094C2005.8 -2.72594 1984.53 -2.72594 1968.37 8.28094L1943.25 25.397C1935.76 30.5009 1925.92 30.5009 1918.43 25.397L1893.31 8.28094C1877.12 -2.72594 1855.86 -2.72594 1839.69 8.28094L1814.57 25.397C1807.08 30.5009 1797.24 30.5009 1789.75 25.397L1764.63 8.28094C1748.44 -2.72594 1727.18 -2.72594 1711.01 8.28094L1685.89 25.397C1678.4 30.5009 1668.57 30.5009 1661.08 25.397L1635.95 8.28094C1619.76 -2.72594 1598.5 -2.72594 1582.33 8.28094L1557.21 25.397C1549.72 30.5009 1539.89 30.5009 1532.4 25.397L1507.27 8.28094C1491.08 -2.72594 1469.82 -2.72594 1453.66 8.28094L1428.53 25.397C1421.04 30.5009 1411.21 30.5009 1403.72 25.397L1378.6 8.28094C1362.41 -2.72594 1341.14 -2.72594 1324.98 8.28094L1299.86 25.397C1292.37 30.5009 1282.53 30.5009 1275.04 25.397L1249.92 8.28094C1233.73 -2.72594 1212.47 -2.72594 1196.3 8.28094L1171.18 25.397C1163.69 30.5009 1153.85 30.5009 1146.36 25.397L1121.24 8.28094C1105.05 -2.72594 1083.79 -2.72594 1067.62 8.28094L1042.5 25.397C1035.01 30.5009 1025.18 30.5009 1017.69 25.397L992.563 8.28094C976.372 -2.72594 955.11 -2.72594 938.945 8.28094L913.822 25.397C906.331 30.5009 896.498 30.5009 889.008 25.397L863.885 8.28094C847.694 -2.72594 826.432 -2.72594 810.267 8.28094L785.144 25.397C777.653 30.5009 767.821 30.5009 760.33 25.397L735.207 8.28094C719.016 -2.72594 697.754 -2.72594 681.589 8.28094L656.466 25.397C648.976 30.5009 639.143 30.5009 631.652 25.397L606.529 8.28094C590.338 -2.72594 569.076 -2.72594 552.911 8.28094L527.788 25.397C520.298 30.5009 510.465 30.5009 502.974 25.397L477.851 8.28094C461.66 -2.72594 440.398 -2.72594 424.233 8.28094L399.11 25.397C391.62 30.5009 381.787 30.5009 374.296 25.397L349.173 8.28094C332.982 -2.72594 311.72 -2.72594 295.555 8.28094L270.432 25.397C262.942 30.5009 253.109 30.5009 245.618 25.397L220.495 8.28094C204.304 -2.72594 183.042 -2.72594 166.877 8.28094L141.754 25.397C134.264 30.5009 124.431 30.5009 116.94 25.397L91.8172 8.28094C75.6263 -2.72594 54.3644 -2.72594 38.1993 8.28094L0 33.8262V222H3475V33.8262L3437.47 8.25516C3421.28 -2.75172 3400.02 -2.75172 3383.85 8.25516L3383.83 8.28094Z" fill="#80D9FF"/>
</svg>
