<svg width="1920" height="122" viewBox="0 0 1920 122" fill="none" xmlns="http://www.w3.org/2000/svg">
<path d="M1869.62 4.55079L1855.74 13.9569C1851.61 16.7618 1846.17 16.7618 1842.03 13.9569L1828.15 4.55079C1819.21 -1.49804 1807.46 -1.49804 1798.53 4.55079L1784.65 13.9569C1780.51 16.7618 1775.08 16.7618 1770.94 13.9569L1757.06 4.55079C1748.11 -1.49804 1736.36 -1.49804 1727.43 4.55079L1713.55 13.9569C1709.41 16.7618 1703.98 16.7618 1699.84 13.9569L1685.96 4.55079C1677.01 -1.49804 1665.27 -1.49804 1656.33 4.55079L1642.45 13.9569C1638.31 16.7618 1632.88 16.7618 1628.74 13.9569L1614.86 4.55079C1605.92 -1.49804 1594.17 -1.49804 1585.24 4.55079L1571.36 13.9569C1567.22 16.7618 1561.78 16.7618 1557.65 13.9569L1543.77 4.55079C1534.82 -1.49804 1523.07 -1.49804 1514.14 4.55079L1500.26 13.9569C1496.12 16.7618 1490.69 16.7618 1486.55 13.9569L1472.67 4.55079C1463.72 -1.49804 1451.98 -1.49804 1443.04 4.55079L1429.16 13.9569C1425.02 16.7618 1419.59 16.7618 1415.45 13.9569L1401.57 4.55079C1392.63 -1.49804 1380.88 -1.49804 1371.95 4.55079L1358.07 13.9569C1353.93 16.7618 1348.49 16.7618 1344.36 13.9569L1330.47 4.55079C1321.53 -1.49804 1309.78 -1.49804 1300.85 4.55079L1286.97 13.9569C1282.83 16.7618 1277.4 16.7618 1273.26 13.9569L1259.38 4.55079C1250.43 -1.49804 1238.68 -1.49804 1229.75 4.55079L1215.87 13.9569C1211.73 16.7618 1206.3 16.7618 1202.16 13.9569L1188.28 4.55079C1179.34 -1.49804 1167.59 -1.49804 1158.66 4.55079L1144.78 13.9569C1140.64 16.7618 1135.2 16.7618 1131.06 13.9569L1117.18 4.55079C1108.24 -1.49804 1096.49 -1.49804 1087.56 4.55079L1073.68 13.9569C1069.54 16.7618 1064.11 16.7618 1059.97 13.9569L1046.09 4.55079C1037.14 -1.49804 1025.39 -1.49804 1016.46 4.55079L1002.58 13.9569C998.443 16.7618 993.01 16.7618 988.871 13.9569L974.99 4.55079C966.044 -1.49804 954.297 -1.49804 945.365 4.55079L931.484 13.9569C927.346 16.7618 921.913 16.7618 917.774 13.9569L903.893 4.55079C894.948 -1.49804 883.2 -1.49804 874.268 4.55079L860.388 13.9569C856.249 16.7618 850.816 16.7618 846.677 13.9569L832.796 4.55079C823.851 -1.49804 812.103 -1.49804 803.172 4.55079L789.291 13.9569C785.152 16.7618 779.719 16.7618 775.581 13.9569L761.7 4.55079C752.754 -1.49804 741.006 -1.49804 732.075 4.55079L718.194 13.9569C714.055 16.7618 708.622 16.7618 704.484 13.9569L690.603 4.55079C681.657 -1.49804 669.909 -1.49804 660.978 4.55079L647.097 13.9569C642.958 16.7618 637.525 16.7618 633.387 13.9569L619.506 4.55079C610.56 -1.49804 598.812 -1.49804 589.881 4.55079L576 13.9569C571.861 16.7618 566.428 16.7618 562.29 13.9569L548.409 4.55079C539.463 -1.49804 527.716 -1.49804 518.784 4.55079L504.903 13.9569C500.764 16.7618 495.332 16.7618 491.193 13.9569L477.312 4.55079C468.366 -1.49804 456.619 -1.49804 447.687 4.55079L433.806 13.9569C429.668 16.7618 424.235 16.7618 420.096 13.9569L406.215 4.55079C397.269 -1.49804 385.522 -1.49804 376.59 4.55079L362.709 13.9569C358.571 16.7618 353.138 16.7618 348.999 13.9569L335.118 4.55079C326.172 -1.49804 314.425 -1.49804 305.493 4.55079L291.612 13.9569C287.474 16.7618 282.041 16.7618 277.902 13.9569L264.021 4.55079C255.076 -1.49804 243.328 -1.49804 234.396 4.55079L220.516 13.9569C216.377 16.7618 210.944 16.7618 206.805 13.9569L192.924 4.55079C183.979 -1.49804 172.231 -1.49804 163.3 4.55079L149.419 13.9569C145.28 16.7618 139.847 16.7618 135.708 13.9569L121.828 4.55079C112.882 -1.49804 101.134 -1.49804 92.2027 4.55079L78.3218 13.9569C74.1831 16.7618 68.7502 16.7618 64.6116 13.9569L50.7307 4.55079C41.7849 -1.49804 30.0373 -1.49804 21.1058 4.55079L0 18.5892V122H1920V18.5892L1899.26 4.53662C1890.32 -1.51221 1878.57 -1.51221 1869.64 4.53662L1869.62 4.55079Z" fill="#0071C9"/>
</svg>
